<mxfile host="app.diagrams.net" modified="2023-10-04T17:11:47.283Z" agent="Mozilla/5.0 (Windows NT 10.0; Win64; x64; rv:109.0) Gecko/20100101 Firefox/118.0" etag="20ICgmBb5pTlP03QXTCI" version="22.0.0" type="github">
  <diagram name="Page-1" id="9f46799a-70d6-7492-0946-bef42562c5a5">
    <mxGraphModel dx="1195" dy="645" grid="1" gridSize="10" guides="1" tooltips="1" connect="1" arrows="1" fold="1" page="1" pageScale="1" pageWidth="1100" pageHeight="850" background="none" math="0" shadow="0">
      <root>
        <mxCell id="0" />
        <mxCell id="1" parent="0" />
        <mxCell id="atN9JdgbpLVfTU2FZC_0-1" value="user" style="swimlane;fontStyle=0;childLayout=stackLayout;horizontal=1;startSize=30;horizontalStack=0;resizeParent=1;resizeParentMax=0;resizeLast=0;collapsible=1;marginBottom=0;whiteSpace=wrap;html=1;" vertex="1" parent="1">
          <mxGeometry x="220" y="190" width="140" height="150" as="geometry" />
        </mxCell>
        <mxCell id="atN9JdgbpLVfTU2FZC_0-2" value="id" style="text;strokeColor=none;fillColor=none;align=left;verticalAlign=middle;spacingLeft=4;spacingRight=4;overflow=hidden;points=[[0,0.5],[1,0.5]];portConstraint=eastwest;rotatable=0;whiteSpace=wrap;html=1;" vertex="1" parent="atN9JdgbpLVfTU2FZC_0-1">
          <mxGeometry y="30" width="140" height="30" as="geometry" />
        </mxCell>
        <mxCell id="atN9JdgbpLVfTU2FZC_0-3" value="user" style="text;strokeColor=none;fillColor=none;align=left;verticalAlign=middle;spacingLeft=4;spacingRight=4;overflow=hidden;points=[[0,0.5],[1,0.5]];portConstraint=eastwest;rotatable=0;whiteSpace=wrap;html=1;" vertex="1" parent="atN9JdgbpLVfTU2FZC_0-1">
          <mxGeometry y="60" width="140" height="30" as="geometry" />
        </mxCell>
        <mxCell id="atN9JdgbpLVfTU2FZC_0-4" value="password" style="text;strokeColor=none;fillColor=none;align=left;verticalAlign=middle;spacingLeft=4;spacingRight=4;overflow=hidden;points=[[0,0.5],[1,0.5]];portConstraint=eastwest;rotatable=0;whiteSpace=wrap;html=1;" vertex="1" parent="atN9JdgbpLVfTU2FZC_0-1">
          <mxGeometry y="90" width="140" height="30" as="geometry" />
        </mxCell>
        <mxCell id="atN9JdgbpLVfTU2FZC_0-5" value="&lt;div&gt;credes&lt;/div&gt;" style="text;strokeColor=none;fillColor=none;align=left;verticalAlign=middle;spacingLeft=4;spacingRight=4;overflow=hidden;points=[[0,0.5],[1,0.5]];portConstraint=eastwest;rotatable=0;whiteSpace=wrap;html=1;" vertex="1" parent="atN9JdgbpLVfTU2FZC_0-1">
          <mxGeometry y="120" width="140" height="30" as="geometry" />
        </mxCell>
        <mxCell id="atN9JdgbpLVfTU2FZC_0-7" value="crede" style="swimlane;fontStyle=0;childLayout=stackLayout;horizontal=1;startSize=30;horizontalStack=0;resizeParent=1;resizeParentMax=0;resizeLast=0;collapsible=1;marginBottom=0;whiteSpace=wrap;html=1;" vertex="1" parent="1">
          <mxGeometry x="710" y="110" width="140" height="90" as="geometry" />
        </mxCell>
        <mxCell id="atN9JdgbpLVfTU2FZC_0-8" value="id" style="text;strokeColor=none;fillColor=none;align=left;verticalAlign=middle;spacingLeft=4;spacingRight=4;overflow=hidden;points=[[0,0.5],[1,0.5]];portConstraint=eastwest;rotatable=0;whiteSpace=wrap;html=1;" vertex="1" parent="atN9JdgbpLVfTU2FZC_0-7">
          <mxGeometry y="30" width="140" height="30" as="geometry" />
        </mxCell>
        <mxCell id="atN9JdgbpLVfTU2FZC_0-9" value="name" style="text;strokeColor=none;fillColor=none;align=left;verticalAlign=middle;spacingLeft=4;spacingRight=4;overflow=hidden;points=[[0,0.5],[1,0.5]];portConstraint=eastwest;rotatable=0;whiteSpace=wrap;html=1;" vertex="1" parent="atN9JdgbpLVfTU2FZC_0-7">
          <mxGeometry y="60" width="140" height="30" as="geometry" />
        </mxCell>
        <mxCell id="atN9JdgbpLVfTU2FZC_0-6" style="edgeStyle=orthogonalEdgeStyle;rounded=0;orthogonalLoop=1;jettySize=auto;html=1;exitX=1;exitY=0.5;exitDx=0;exitDy=0;metaEdit=0;comic=0;orthogonal=0;enumerate=0;flowAnimation=0;noJump=0;endArrow=ERmany;endFill=0;startArrow=ERone;startFill=0;" edge="1" parent="1" source="atN9JdgbpLVfTU2FZC_0-5" target="atN9JdgbpLVfTU2FZC_0-8">
          <mxGeometry relative="1" as="geometry">
            <mxPoint x="790" y="200" as="targetPoint" />
          </mxGeometry>
        </mxCell>
        <mxCell id="atN9JdgbpLVfTU2FZC_0-11" value="escola" style="swimlane;fontStyle=0;childLayout=stackLayout;horizontal=1;startSize=30;horizontalStack=0;resizeParent=1;resizeParentMax=0;resizeLast=0;collapsible=1;marginBottom=0;whiteSpace=wrap;html=1;" vertex="1" parent="1">
          <mxGeometry x="710" y="280" width="140" height="90" as="geometry" />
        </mxCell>
        <mxCell id="atN9JdgbpLVfTU2FZC_0-12" value="id" style="text;strokeColor=none;fillColor=none;align=left;verticalAlign=middle;spacingLeft=4;spacingRight=4;overflow=hidden;points=[[0,0.5],[1,0.5]];portConstraint=eastwest;rotatable=0;whiteSpace=wrap;html=1;" vertex="1" parent="atN9JdgbpLVfTU2FZC_0-11">
          <mxGeometry y="30" width="140" height="30" as="geometry" />
        </mxCell>
        <mxCell id="atN9JdgbpLVfTU2FZC_0-13" value="name" style="text;strokeColor=none;fillColor=none;align=left;verticalAlign=middle;spacingLeft=4;spacingRight=4;overflow=hidden;points=[[0,0.5],[1,0.5]];portConstraint=eastwest;rotatable=0;whiteSpace=wrap;html=1;" vertex="1" parent="atN9JdgbpLVfTU2FZC_0-11">
          <mxGeometry y="60" width="140" height="30" as="geometry" />
        </mxCell>
        <mxCell id="atN9JdgbpLVfTU2FZC_0-15" style="edgeStyle=orthogonalEdgeStyle;rounded=0;orthogonalLoop=1;jettySize=auto;html=1;exitX=1;exitY=0.5;exitDx=0;exitDy=0;entryX=1;entryY=0.5;entryDx=0;entryDy=0;endArrow=ERmany;endFill=0;startArrow=ERone;startFill=0;" edge="1" parent="1" source="atN9JdgbpLVfTU2FZC_0-8" target="atN9JdgbpLVfTU2FZC_0-12">
          <mxGeometry relative="1" as="geometry" />
        </mxCell>
        <mxCell id="atN9JdgbpLVfTU2FZC_0-16" value="report" style="swimlane;fontStyle=0;childLayout=stackLayout;horizontal=1;startSize=30;horizontalStack=0;resizeParent=1;resizeParentMax=0;resizeLast=0;collapsible=1;marginBottom=0;whiteSpace=wrap;html=1;" vertex="1" parent="1">
          <mxGeometry x="480" y="370" width="140" height="180" as="geometry" />
        </mxCell>
        <mxCell id="atN9JdgbpLVfTU2FZC_0-17" value="id" style="text;strokeColor=none;fillColor=none;align=left;verticalAlign=middle;spacingLeft=4;spacingRight=4;overflow=hidden;points=[[0,0.5],[1,0.5]];portConstraint=eastwest;rotatable=0;whiteSpace=wrap;html=1;" vertex="1" parent="atN9JdgbpLVfTU2FZC_0-16">
          <mxGeometry y="30" width="140" height="30" as="geometry" />
        </mxCell>
        <mxCell id="atN9JdgbpLVfTU2FZC_0-21" value="&lt;div&gt;school&lt;/div&gt;" style="text;strokeColor=none;fillColor=none;align=left;verticalAlign=middle;spacingLeft=4;spacingRight=4;overflow=hidden;points=[[0,0.5],[1,0.5]];portConstraint=eastwest;rotatable=0;whiteSpace=wrap;html=1;" vertex="1" parent="atN9JdgbpLVfTU2FZC_0-16">
          <mxGeometry y="60" width="140" height="30" as="geometry" />
        </mxCell>
        <mxCell id="atN9JdgbpLVfTU2FZC_0-18" value="data" style="text;strokeColor=none;fillColor=none;align=left;verticalAlign=middle;spacingLeft=4;spacingRight=4;overflow=hidden;points=[[0,0.5],[1,0.5]];portConstraint=eastwest;rotatable=0;whiteSpace=wrap;html=1;" vertex="1" parent="atN9JdgbpLVfTU2FZC_0-16">
          <mxGeometry y="90" width="140" height="30" as="geometry" />
        </mxCell>
        <mxCell id="atN9JdgbpLVfTU2FZC_0-19" value="date" style="text;strokeColor=none;fillColor=none;align=left;verticalAlign=middle;spacingLeft=4;spacingRight=4;overflow=hidden;points=[[0,0.5],[1,0.5]];portConstraint=eastwest;rotatable=0;whiteSpace=wrap;html=1;" vertex="1" parent="atN9JdgbpLVfTU2FZC_0-16">
          <mxGeometry y="120" width="140" height="30" as="geometry" />
        </mxCell>
        <mxCell id="atN9JdgbpLVfTU2FZC_0-20" value="sender" style="text;strokeColor=none;fillColor=none;align=left;verticalAlign=middle;spacingLeft=4;spacingRight=4;overflow=hidden;points=[[0,0.5],[1,0.5]];portConstraint=eastwest;rotatable=0;whiteSpace=wrap;html=1;" vertex="1" parent="atN9JdgbpLVfTU2FZC_0-16">
          <mxGeometry y="150" width="140" height="30" as="geometry" />
        </mxCell>
        <mxCell id="atN9JdgbpLVfTU2FZC_0-22" style="edgeStyle=orthogonalEdgeStyle;rounded=0;orthogonalLoop=1;jettySize=auto;html=1;exitX=1;exitY=0.5;exitDx=0;exitDy=0;entryX=0;entryY=0.5;entryDx=0;entryDy=0;startArrow=ERmany;startFill=0;endArrow=ERone;endFill=0;" edge="1" parent="1" source="atN9JdgbpLVfTU2FZC_0-21" target="atN9JdgbpLVfTU2FZC_0-12">
          <mxGeometry relative="1" as="geometry" />
        </mxCell>
        <mxCell id="atN9JdgbpLVfTU2FZC_0-23" style="edgeStyle=orthogonalEdgeStyle;rounded=0;orthogonalLoop=1;jettySize=auto;html=1;exitX=0;exitY=0.5;exitDx=0;exitDy=0;entryX=0;entryY=0.5;entryDx=0;entryDy=0;endArrow=ERone;endFill=0;startArrow=ERmany;startFill=0;" edge="1" parent="1" source="atN9JdgbpLVfTU2FZC_0-20" target="atN9JdgbpLVfTU2FZC_0-2">
          <mxGeometry relative="1" as="geometry" />
        </mxCell>
      </root>
    </mxGraphModel>
  </diagram>
</mxfile>
